<svg width="162" height="74" viewBox="0 0 162 74" fill="none" xmlns="http://www.w3.org/2000/svg">
<path d="M11.1094 13.3086L12.832 4.20312H15.46L12.6211 17H9.9668L7.88379 8.43945L5.80078 17H3.14648L0.307617 4.20312H2.93555L4.66699 13.291L6.77637 4.20312H9.00879L11.1094 13.3086ZM29.9918 11.4541H24.9293V14.8818H30.8707V17H22.2926V4.20312H30.8531V6.33887H24.9293V9.38867H29.9918V11.4541ZM40.4543 14.8818H46.0529V17H37.8176V4.20312H40.4543V14.8818ZM62.4568 12.7373C62.3572 14.1143 61.8475 15.1982 60.9275 15.9893C60.0135 16.7803 58.8064 17.1758 57.3064 17.1758C55.6658 17.1758 54.3738 16.625 53.4305 15.5234C52.493 14.416 52.0242 12.8984 52.0242 10.9707V10.1885C52.0242 8.95801 52.241 7.87402 52.6746 6.93652C53.1082 5.99902 53.7264 5.28125 54.5291 4.7832C55.3377 4.2793 56.2752 4.02734 57.3416 4.02734C58.8182 4.02734 60.0076 4.42285 60.91 5.21387C61.8123 6.00488 62.3338 7.11523 62.4744 8.54492H59.8377C59.7732 7.71875 59.5418 7.12109 59.1434 6.75195C58.7508 6.37695 58.1502 6.18945 57.3416 6.18945C56.4627 6.18945 55.8035 6.50586 55.3641 7.13867C54.9305 7.76562 54.7078 8.74121 54.6961 10.0654V11.0322C54.6961 12.415 54.9041 13.4258 55.3201 14.0645C55.742 14.7031 56.4041 15.0225 57.3064 15.0225C58.1209 15.0225 58.7273 14.8379 59.1258 14.4688C59.5301 14.0938 59.7615 13.5166 59.8201 12.7373H62.4568ZM80.1 10.8916C80.1 12.1514 79.8773 13.2559 79.432 14.2051C78.9867 15.1543 78.348 15.8867 77.516 16.4023C76.6898 16.918 75.7406 17.1758 74.6684 17.1758C73.6078 17.1758 72.6615 16.9209 71.8295 16.4111C70.9975 15.9014 70.3529 15.1748 69.8959 14.2314C69.4389 13.2822 69.2074 12.1924 69.2016 10.9619V10.3291C69.2016 9.06934 69.4271 7.96191 69.8783 7.00684C70.3354 6.0459 70.977 5.31055 71.8031 4.80078C72.6352 4.28516 73.5844 4.02734 74.6508 4.02734C75.7172 4.02734 76.6635 4.28516 77.4896 4.80078C78.3217 5.31055 78.9633 6.0459 79.4145 7.00684C79.8715 7.96191 80.1 9.06641 80.1 10.3203V10.8916ZM77.4281 10.3115C77.4281 8.96973 77.1879 7.9502 76.7074 7.25293C76.227 6.55566 75.5414 6.20703 74.6508 6.20703C73.766 6.20703 73.0834 6.55273 72.6029 7.24414C72.1225 7.92969 71.8793 8.9375 71.8734 10.2676V10.8916C71.8734 12.1982 72.1137 13.2119 72.5941 13.9326C73.0746 14.6533 73.766 15.0137 74.6684 15.0137C75.5531 15.0137 76.2328 14.668 76.7074 13.9766C77.182 13.2793 77.4223 12.2656 77.4281 10.9355V10.3115ZM90.8613 4.20312L94.1484 13.4844L97.418 4.20312H100.881V17H98.2354V13.502L98.499 7.46387L95.0449 17H93.2344L89.7891 7.47266L90.0527 13.502V17H87.416V4.20312H90.8613ZM116.283 11.4541H111.22V14.8818H117.162V17H108.584V4.20312H117.144V6.33887H111.22V9.38867H116.283V11.4541ZM143.096 6.33887H139.177V17H136.54V6.33887H132.673V4.20312H143.096V6.33887ZM160.274 10.8916C160.274 12.1514 160.051 13.2559 159.606 14.2051C159.161 15.1543 158.522 15.8867 157.69 16.4023C156.864 16.918 155.914 17.1758 154.842 17.1758C153.782 17.1758 152.835 16.9209 152.003 16.4111C151.171 15.9014 150.527 15.1748 150.07 14.2314C149.613 13.2822 149.381 12.1924 149.375 10.9619V10.3291C149.375 9.06934 149.601 7.96191 150.052 7.00684C150.509 6.0459 151.151 5.31055 151.977 4.80078C152.809 4.28516 153.758 4.02734 154.825 4.02734C155.891 4.02734 156.837 4.28516 157.663 4.80078C158.496 5.31055 159.137 6.0459 159.588 7.00684C160.045 7.96191 160.274 9.06641 160.274 10.3203V10.8916ZM157.602 10.3115C157.602 8.96973 157.362 7.9502 156.881 7.25293C156.401 6.55566 155.715 6.20703 154.825 6.20703C153.94 6.20703 153.257 6.55273 152.777 7.24414C152.296 7.92969 152.053 8.9375 152.047 10.2676V10.8916C152.047 12.1982 152.288 13.2119 152.768 13.9326C153.248 14.6533 153.94 15.0137 154.842 15.0137C155.727 15.0137 156.407 14.668 156.881 13.9766C157.356 13.2793 157.596 12.2656 157.602 10.9355V10.3115Z" fill="#44506A"/>
<g filter="url(#filter0_d)">
<path d="M137.195 36H24.8049C16.0761 36 9 43.0761 9 51.8049V52.2439C9 60.9727 16.0761 68.0488 24.8049 68.0488H137.195C145.924 68.0488 153 60.9727 153 52.2439V51.8049C153 43.0761 145.924 36 137.195 36Z" stroke="#FF0A6C"/>
<path d="M137.195 36H24.8049C16.0761 36 9 43.0761 9 51.8049V52.2439C9 60.9727 16.0761 68.0488 24.8049 68.0488H137.195C145.924 68.0488 153 60.9727 153 52.2439V51.8049C153 43.0761 145.924 36 137.195 36Z" stroke="url(#paint0_linear)"/>
</g>
<g filter="url(#filter1_d)">
<path d="M31.0847 52.7995H24.9315V57.4093H32.1239V59.4878H22.3282V44.5061H32.0519V46.6052H24.9315V50.7416H31.0847V52.7995ZM42.5778 56.226L46.385 44.5061H49.2455L43.8538 59.4878H41.3328L35.9616 44.5061H38.8118L42.5778 56.226ZM62.7555 52.7995H56.6021V57.4093H63.7946V59.4878H53.9987V44.5061H63.7226V46.6052H56.6021V50.7416H62.7555V52.7995ZM80.8542 59.4878H78.2513L71.5733 48.8586V59.4878H68.9699V44.5061H71.5733L78.2719 55.1764V44.5061H80.8542V59.4878ZM97.5025 46.6052H92.8313V59.4878H90.2485V46.6052H85.6181V44.5061H97.5025V46.6052ZM105.137 53.9211V59.4878H102.534V44.5061H108.265C109.939 44.5061 111.266 44.9417 112.247 45.8129C113.235 46.684 113.729 47.8365 113.729 49.2702C113.729 50.7382 113.245 51.8803 112.278 52.6966C111.318 53.5129 109.97 53.9211 108.234 53.9211H105.137ZM105.137 51.8323H108.265C109.191 51.8323 109.898 51.6162 110.385 51.184C110.872 50.745 111.115 50.1139 111.115 49.2908C111.115 48.4813 110.869 47.8365 110.375 47.3563C109.881 46.8693 109.202 46.6189 108.337 46.6052H105.137V51.8323ZM121.816 59.4878H119.223V44.5061H121.816V59.4878ZM139.504 54.6105C139.353 56.2088 138.763 57.4573 137.734 58.356C136.705 59.2477 135.336 59.6936 133.628 59.6936C132.435 59.6936 131.382 59.4123 130.469 58.8499C129.564 58.2805 128.864 57.4745 128.37 56.4318C127.876 55.3891 127.619 54.1783 127.598 52.7995V51.4001C127.598 49.987 127.849 48.742 128.35 47.665C128.851 46.588 129.568 45.758 130.5 45.1749C131.44 44.5918 132.524 44.3003 133.752 44.3003C135.405 44.3003 136.736 44.7496 137.744 45.6483C138.753 46.5469 139.339 47.8159 139.504 49.4554H136.911C136.787 48.3784 136.472 47.6033 135.964 47.13C135.463 46.6498 134.726 46.4097 133.752 46.4097C132.62 46.4097 131.749 46.8247 131.138 47.6547C130.535 48.4779 130.226 49.6886 130.212 51.287V52.6143C130.212 54.2332 130.5 55.468 131.076 56.3186C131.659 57.1692 132.51 57.5945 133.628 57.5945C134.651 57.5945 135.419 57.3647 135.933 56.9051C136.448 56.4455 136.774 55.6806 136.911 54.6105H139.504Z" fill="#FF0A6C"/>
<path d="M31.0847 52.7995H24.9315V57.4093H32.1239V59.4878H22.3282V44.5061H32.0519V46.6052H24.9315V50.7416H31.0847V52.7995ZM42.5778 56.226L46.385 44.5061H49.2455L43.8538 59.4878H41.3328L35.9616 44.5061H38.8118L42.5778 56.226ZM62.7555 52.7995H56.6021V57.4093H63.7946V59.4878H53.9987V44.5061H63.7226V46.6052H56.6021V50.7416H62.7555V52.7995ZM80.8542 59.4878H78.2513L71.5733 48.8586V59.4878H68.9699V44.5061H71.5733L78.2719 55.1764V44.5061H80.8542V59.4878ZM97.5025 46.6052H92.8313V59.4878H90.2485V46.6052H85.6181V44.5061H97.5025V46.6052ZM105.137 53.9211V59.4878H102.534V44.5061H108.265C109.939 44.5061 111.266 44.9417 112.247 45.8129C113.235 46.684 113.729 47.8365 113.729 49.2702C113.729 50.7382 113.245 51.8803 112.278 52.6966C111.318 53.5129 109.97 53.9211 108.234 53.9211H105.137ZM105.137 51.8323H108.265C109.191 51.8323 109.898 51.6162 110.385 51.184C110.872 50.745 111.115 50.1139 111.115 49.2908C111.115 48.4813 110.869 47.8365 110.375 47.3563C109.881 46.8693 109.202 46.6189 108.337 46.6052H105.137V51.8323ZM121.816 59.4878H119.223V44.5061H121.816V59.4878ZM139.504 54.6105C139.353 56.2088 138.763 57.4573 137.734 58.356C136.705 59.2477 135.336 59.6936 133.628 59.6936C132.435 59.6936 131.382 59.4123 130.469 58.8499C129.564 58.2805 128.864 57.4745 128.37 56.4318C127.876 55.3891 127.619 54.1783 127.598 52.7995V51.4001C127.598 49.987 127.849 48.742 128.35 47.665C128.851 46.588 129.568 45.758 130.5 45.1749C131.44 44.5918 132.524 44.3003 133.752 44.3003C135.405 44.3003 136.736 44.7496 137.744 45.6483C138.753 46.5469 139.339 47.8159 139.504 49.4554H136.911C136.787 48.3784 136.472 47.6033 135.964 47.13C135.463 46.6498 134.726 46.4097 133.752 46.4097C132.62 46.4097 131.749 46.8247 131.138 47.6547C130.535 48.4779 130.226 49.6886 130.212 51.287V52.6143C130.212 54.2332 130.5 55.468 131.076 56.3186C131.659 57.1692 132.51 57.5945 133.628 57.5945C134.651 57.5945 135.419 57.3647 135.933 56.9051C136.448 56.4455 136.774 55.6806 136.911 54.6105H139.504Z" fill="url(#paint1_linear)"/>
</g>
<defs>
<filter id="filter0_d" x="3.5" y="30.5" width="155" height="43.0488" filterUnits="userSpaceOnUse" color-interpolation-filters="sRGB">
<feFlood flood-opacity="0" result="BackgroundImageFix"/>
<feColorMatrix in="SourceAlpha" type="matrix" values="0 0 0 0 0 0 0 0 0 0 0 0 0 0 0 0 0 0 127 0"/>
<feOffset/>
<feGaussianBlur stdDeviation="2.5"/>
<feColorMatrix type="matrix" values="0 0 0 0 0 0 0 0 0 0 0 0 0 0 0 0 0 0 0.25 0"/>
<feBlend mode="normal" in2="BackgroundImageFix" result="effect1_dropShadow"/>
<feBlend mode="normal" in="SourceGraphic" in2="effect1_dropShadow" result="shape"/>
</filter>
<filter id="filter1_d" x="18.3282" y="40.3003" width="125.175" height="23.3933" filterUnits="userSpaceOnUse" color-interpolation-filters="sRGB">
<feFlood flood-opacity="0" result="BackgroundImageFix"/>
<feColorMatrix in="SourceAlpha" type="matrix" values="0 0 0 0 0 0 0 0 0 0 0 0 0 0 0 0 0 0 127 0"/>
<feOffset/>
<feGaussianBlur stdDeviation="2"/>
<feColorMatrix type="matrix" values="0 0 0 0 0 0 0 0 0 0 0 0 0 0 0 0 0 0 0.25 0"/>
<feBlend mode="normal" in2="BackgroundImageFix" result="effect1_dropShadow"/>
<feBlend mode="normal" in="SourceGraphic" in2="effect1_dropShadow" result="shape"/>
</filter>
<linearGradient id="paint0_linear" x1="122.927" y1="35.7805" x2="19.5299" y2="66.1634" gradientUnits="userSpaceOnUse">
<stop stop-color="#4A3CDB"/>
<stop offset="1" stop-color="white" stop-opacity="0"/>
</linearGradient>
<linearGradient id="paint1_linear" x1="115.255" y1="40.1707" x2="28.1837" y2="77.4252" gradientUnits="userSpaceOnUse">
<stop stop-color="#4A3CDB"/>
<stop offset="1" stop-color="white" stop-opacity="0"/>
</linearGradient>
</defs>
</svg>
