<svg width="322" height="212" viewBox="0 0 322 212" fill="none" xmlns="http://www.w3.org/2000/svg">
<path d="M0 197V15.4763C6.32406 9.3074 43.2144 -9.7327 88.5368 6.22295C148.615 27.3735 121.211 85.5374 167.061 105.366C212.91 125.195 242.422 118.585 279.84 141.058C309.773 159.036 320.419 195.843 322 212H15C6.71573 212 0 205.284 0 197Z" fill="#FF0A6C"/>
<path d="M0 197V15.4763C6.32406 9.3074 43.2144 -9.7327 88.5368 6.22295C148.615 27.3735 121.211 85.5374 167.061 105.366C212.91 125.195 242.422 118.585 279.84 141.058C309.773 159.036 320.419 195.843 322 212H15C6.71573 212 0 205.284 0 197Z" fill="url(#paint0_linear)"/>
<defs>
<linearGradient id="paint0_linear" x1="161.264" y1="11.9512" x2="36.8298" y2="232.755" gradientUnits="userSpaceOnUse">
<stop stop-color="#407BFF"/>
<stop offset="1" stop-color="white" stop-opacity="0"/>
</linearGradient>
</defs>
</svg>
