<svg width="191" height="165" viewBox="0 0 191 165" fill="none" xmlns="http://www.w3.org/2000/svg">
<path d="M190.348 5.08347H100.736C100.736 5.08347 84.5879 19.9296 84.5879 56.0907C84.5879 87.1683 96.8299 129.299 92.234 146.553C88.7677 159.568 71.9595 161.797 63.9092 162.112H149.205C149.205 162.112 177.256 163.807 181.852 146.553C186.448 129.299 174.206 87.1683 174.206 56.0907C174.206 19.9237 190.348 5.08347 190.348 5.08347Z" fill="#407BFF"/>
<path opacity="0.7" d="M190.348 5.08347H100.736C100.736 5.08347 84.5879 19.9296 84.5879 56.0907C84.5879 87.1683 96.8299 129.299 92.234 146.553C88.7677 159.568 71.9595 161.797 63.9092 162.112H149.205C149.205 162.112 177.256 163.807 181.852 146.553C186.448 129.299 174.206 87.1683 174.206 56.0907C174.206 19.9237 190.348 5.08347 190.348 5.08347Z" fill="white"/>
<g opacity="0.8">
<path opacity="0.8" d="M165.971 43.1947H94.3029C96.3304 27.2962 101.794 18.0448 104.809 14.0018H173.885C170.525 21.0771 167.327 30.7149 165.971 43.1947Z" fill="#407BFF"/>
<path opacity="0.3" d="M165.371 51.6255H93.6014C93.6608 50.1807 93.7441 48.7776 93.863 47.422H165.591C165.489 48.7895 165.418 50.1926 165.371 51.6255Z" fill="#407BFF"/>
<path opacity="0.3" d="M116.105 60.0504H93.5776C93.536 58.7067 93.5122 57.3868 93.5122 56.0847V55.8528H116.046V56.0847C116.046 57.3927 116.064 58.7186 116.105 60.0504Z" fill="#407BFF"/>
<path opacity="0.3" d="M165.799 68.4753H94.0829C93.9581 67.0603 93.857 65.6571 93.7797 64.2777H165.525C165.596 65.669 165.686 67.0662 165.799 68.4753Z" fill="#407BFF"/>
<path opacity="0.3" d="M166.589 76.9062H94.9332C94.7667 75.4971 94.6121 74.0939 94.4694 72.7026H166.155C166.286 74.0998 166.435 75.503 166.589 76.9062Z" fill="#407BFF"/>
<path opacity="0.3" d="M167.624 85.3311H96.0153C95.8191 83.9279 95.6348 82.5247 95.4564 81.1335H167.089C167.255 82.5307 167.434 83.9279 167.624 85.3311Z" fill="#407BFF"/>
<path opacity="0.3" d="M168.807 93.7559H97.2341C97.026 92.3528 96.8179 90.9556 96.6158 89.5584H168.207C168.403 90.9556 168.605 92.3587 168.807 93.7559Z" fill="#407BFF"/>
<path opacity="0.3" d="M170.073 102.187H98.5065C98.3935 101.42 98.2746 100.641 98.1556 99.8621C98.0605 99.2378 97.9654 98.6135 97.8703 97.9833H169.437C169.651 99.3864 169.859 100.79 170.073 102.187Z" fill="#407BFF"/>
<path opacity="0.3" d="M99.755 110.612C99.5588 109.226 99.3567 107.829 99.1427 106.414H170.716C170.924 107.817 171.138 109.214 171.34 110.612H99.755Z" fill="#407BFF"/>
<path opacity="0.3" d="M100.891 119.037C100.724 117.663 100.54 116.26 100.35 114.839H160.043C160.246 116.254 160.436 117.657 160.614 119.037H100.891Z" fill="#407BFF"/>
<path opacity="0.3" d="M101.771 127.467C101.658 126.094 101.527 124.691 101.378 123.264H173.034C173.195 124.703 173.344 126.106 173.468 127.467H101.771Z" fill="#407BFF"/>
<path opacity="0.3" d="M102.181 135.892C102.175 134.537 102.127 133.134 102.05 131.695H139.858C139.953 133.163 140.007 134.566 140.025 135.892H102.181Z" fill="#407BFF"/>
</g>
<path d="M156.084 157.558C151.535 158.384 146.927 157.754 142.355 157.534C140.161 157.427 137.955 157.421 135.773 157.713C133.639 157.998 131.505 158.557 129.346 158.367C130.06 157.98 130.726 157.528 131.35 157.005C131.487 156.892 131.397 156.684 131.249 156.631C124.536 154.276 118.424 160.691 111.735 159.187C113.626 157.784 116.296 157.754 117.913 155.917C118.038 155.774 117.955 155.542 117.752 155.537C111.765 155.441 106.105 157.766 100.189 158.283C99.9037 158.307 99.9037 158.753 100.189 158.729C105.927 158.23 111.426 156.036 117.211 155.988C115.481 157.534 112.841 157.588 111.081 159.146C110.951 159.258 111.028 159.478 111.182 159.52C117.919 161.381 124.061 154.948 130.714 156.94C130.018 157.481 129.269 157.939 128.46 158.313C128.294 158.39 128.33 158.688 128.514 158.723C130.708 159.092 132.854 158.622 135.018 158.277C137.444 157.891 139.894 157.873 142.343 157.992C146.963 158.218 151.601 158.836 156.191 158.004C156.488 157.939 156.369 157.505 156.084 157.558Z" fill="#407BFF"/>
<path d="M34.7163 27.0227C35.0909 27.5043 35.5725 28.0691 36.0125 28.5923C36.4643 29.1215 36.934 29.6447 37.4097 30.156C38.3669 31.1786 39.336 32.1835 40.3587 33.1169C42.398 34.966 44.592 36.6367 46.8869 37.695C47.1723 37.8258 47.4577 37.9447 47.7491 38.0517C47.8977 38.1112 48.0285 38.1528 48.1534 38.1944C48.2782 38.2361 48.409 38.2777 48.5458 38.3074C49.0809 38.4442 49.6695 38.5393 50.2878 38.5809C51.5305 38.6463 52.8682 38.569 54.2238 38.355C55.5794 38.1588 56.9528 37.8496 58.3203 37.4869C59.6818 37.1302 61.085 36.6902 62.3871 36.2324L63.5881 38.5869C60.9245 40.2278 58.1598 41.5002 55.0859 42.3682C53.5519 42.7904 51.9466 43.0995 50.2343 43.1531C49.3781 43.1768 48.4863 43.1352 47.5766 42.9747C47.3507 42.939 47.1188 42.8915 46.8929 42.832C46.6551 42.7785 46.4351 42.719 46.2329 42.6536C45.8167 42.5347 45.4124 42.392 45.0141 42.2434C41.8451 41.0126 39.2052 39.1338 36.833 37.0826C35.6498 36.0481 34.5142 34.9779 33.4618 33.8363C32.9327 33.2656 32.4154 32.6888 31.91 32.0943C31.3927 31.4938 30.9349 30.917 30.4177 30.2214L34.7163 27.0227Z" fill="#FFB573"/>
<path d="M28.6697 25.3401C28.5389 28.6696 29.8291 34.6687 29.8291 34.6687L38.0697 33.6698C38.0697 33.6698 38.3729 24.8882 36.7735 22.7597C34.098 19.1983 28.7946 22.1949 28.6697 25.3401Z" fill="#A6C1FF"/>
<path d="M61.3169 37.0826L65.1815 33.5509L65.675 37.3561C65.675 37.3561 64.0757 39.4965 62.2623 38.5988L61.3169 37.0826Z" fill="#FFB573"/>
<path d="M67.1139 33.759L68.7489 35.8994L65.6691 37.3561L65.1756 33.5509L67.1139 33.759Z" fill="#FFB573"/>
<path d="M66.1388 24.1332C66.549 24.1094 66.775 24.1331 67.0663 24.1391C67.2149 24.1391 67.3457 24.145 67.4349 24.1629L67.7441 24.2045C68.1068 24.2758 68.3327 24.3769 68.4814 24.5018C68.624 24.6266 68.63 24.7872 68.6835 24.9358L68.8203 25.3877L69.3732 27.1951L70.4791 30.8041L72.6849 38.022C74.1416 42.838 75.6577 47.642 77.0608 52.4698C79.9444 62.1135 82.6794 71.793 85.3549 81.4902C88.0304 91.1875 90.5573 100.92 93.1436 110.641C95.7716 120.351 98.0547 130.149 98.8811 140.322C99.0119 141.945 97.805 143.372 96.1818 143.503C94.9095 143.604 93.756 142.878 93.2566 141.784C89.0352 132.485 86.2765 122.812 83.8626 113.049C81.4071 103.299 78.8861 93.5598 76.5198 83.7852C74.1534 74.0107 71.8406 64.2183 69.6824 54.3902C68.5646 49.4851 67.5598 44.5503 66.4896 39.6333L64.914 32.2489L64.1232 28.5567L63.7308 26.7135L63.6298 26.2498C63.606 26.0952 63.5346 25.9525 63.5941 25.7741C63.6595 25.5958 63.8141 25.3936 64.0935 25.1558L64.3432 24.9715C64.4146 24.912 64.5275 24.8407 64.6583 24.7693C64.914 24.6207 65.0983 24.4958 65.4669 24.3175C65.6869 24.2045 65.9188 24.145 66.1388 24.1332Z" fill="#263238"/>
<path d="M98.3222 141.796C98.2212 141.463 97.8823 141.261 97.5493 141.35L96.2413 141.689L94.9333 142.028C94.5944 142.117 94.3982 142.456 94.4755 142.795C95.29 146.535 94.4933 149.222 95.3495 152.51C96.2472 155.977 100.153 157.754 100.153 157.754L100.029 156.28L100.635 157.635C100.635 157.635 103.186 154.187 102.288 150.721C101.426 147.421 99.4281 145.459 98.3222 141.796Z" fill="#407BFF"/>
<path opacity="0.3" d="M98.3222 141.796C98.2212 141.463 97.8823 141.261 97.5493 141.35L96.2413 141.689L94.9333 142.028C94.5944 142.117 94.3982 142.456 94.4755 142.795C95.29 146.535 94.4933 149.222 95.3495 152.51C96.2472 155.977 100.153 157.754 100.153 157.754L100.029 156.28L100.635 157.635C100.635 157.635 103.186 154.187 102.288 150.721C101.426 147.421 99.4281 145.459 98.3222 141.796Z" fill="white"/>
<path d="M99.3389 150.388C99.4519 150.828 99.1903 151.274 98.7503 151.387C98.3103 151.499 97.8644 151.238 97.7515 150.798C97.6385 150.358 97.9001 149.912 98.3401 149.799C98.78 149.686 99.226 149.954 99.3389 150.388Z" fill="#263238"/>
<path d="M100.07 156.452C99.9692 156.476 99.8681 156.417 99.8443 156.321L98.3698 150.637C98.346 150.536 98.4055 150.435 98.5006 150.411C98.6017 150.388 98.7028 150.447 98.7265 150.542L100.201 156.226C100.225 156.327 100.165 156.428 100.07 156.452Z" fill="#263238"/>
<path d="M95.2543 121.373L87.2397 123.448C86.7818 123.567 86.3062 123.288 86.1873 122.83C86.0684 122.372 86.3478 121.896 86.8056 121.778L94.8203 119.703C95.2781 119.584 95.7537 119.863 95.8726 120.321C95.9916 120.779 95.7121 121.248 95.2543 121.373Z" fill="#407BFF"/>
<path d="M54.5687 12.5571C54.426 12.9138 54.4973 13.2884 54.7292 13.3895C54.9611 13.4905 55.2703 13.2824 55.413 12.9257C55.5556 12.569 55.4843 12.1944 55.2524 12.0933C55.0205 11.9922 54.7173 12.2003 54.5687 12.5571Z" fill="#263238"/>
<path d="M55.1454 12.0695L56.1026 12.1944C56.1026 12.1944 55.3892 12.67 55.1454 12.0695Z" fill="#263238"/>
<path d="M54.7351 13.0327C54.7351 13.0327 54.7232 14.8342 55.0918 15.8688C54.4438 16.1066 53.7244 15.5537 53.7244 15.5537L54.7351 13.0327Z" fill="#ED893E"/>
<path d="M56.0075 10.381C55.9718 10.375 55.9362 10.3572 55.9064 10.3334C55.1335 9.66752 54.3309 9.86372 54.2952 9.86967C54.1763 9.89939 54.0514 9.82804 54.0157 9.70913C53.986 9.59023 54.0574 9.46537 54.1763 9.4297C54.2179 9.41781 55.2405 9.16215 56.1978 9.98857C56.2929 10.0718 56.3048 10.2145 56.2216 10.3096C56.174 10.375 56.0848 10.3988 56.0075 10.381Z" fill="#263238"/>
<path d="M41.964 12.3728C42.2197 15.2623 41.2505 20.0069 39.0685 21.6182C39.0685 21.6182 40.7154 24.6623 45.9892 25.3698C51.7861 26.1487 49.063 22.8846 49.063 22.8846C45.9773 21.7073 46.3043 19.3886 47.0891 17.2719L41.964 12.3728Z" fill="#FFB573"/>
<path d="M57.7615 27.8253C58.2133 30.5306 58.7782 33.331 59.3727 36.054C59.6878 37.4156 60.0029 38.7831 60.3716 40.1208C60.7105 41.4705 61.1088 42.7963 61.5191 44.1103C61.7391 44.7524 61.9412 45.4183 62.179 46.0486L62.5358 46.9999L62.6249 47.2317L62.6487 47.2971C62.6666 47.3388 62.6725 47.3744 62.6903 47.4042C62.7438 47.5171 62.8747 47.6895 63.2492 47.8382C63.6119 47.9809 64.1351 48.076 64.7059 48.1176C65.8653 48.183 67.1912 48.0344 68.5111 47.8085C69.831 47.5766 71.2104 47.2555 72.5006 46.8928L73.5886 49.3067C72.9049 49.717 72.2568 50.044 71.5671 50.377C70.8893 50.7099 70.1877 51.0072 69.4683 51.2688C68.0235 51.7979 66.5193 52.2379 64.801 52.3806C63.9389 52.446 63.0173 52.4401 61.9947 52.1904C60.9958 51.9525 59.8067 51.3936 58.9684 50.3651C58.7544 50.1213 58.576 49.8478 58.4214 49.5743C58.3441 49.4375 58.2728 49.3008 58.2074 49.1581L58.0885 48.8965L57.6247 47.856C57.3215 47.1604 57.0539 46.4648 56.7745 45.7632C56.2632 44.36 55.7756 42.9509 55.3535 41.5359C54.9254 40.1149 54.5568 38.6939 54.1941 37.2669C53.4806 34.4012 52.9099 31.5651 52.4758 28.5983L57.7615 27.8253Z" fill="#FFB573"/>
<path d="M71.9179 47.0653L74.2129 45.2459L75.2415 48.7835C75.2415 48.7835 72.1022 51.0548 71.2639 48.3852L71.9179 47.0653Z" fill="#FFB573"/>
<path d="M76.2819 45.8702L77.1024 48.4506L75.2415 48.7776L74.2069 45.2459L76.2819 45.8702Z" fill="#FFB573"/>
<path d="M33.4024 159.181L38.2005 159.538L39.6215 148.521L34.8234 148.164L33.4024 159.181Z" fill="#FFB573"/>
<path d="M2.6756 145.185L6.83157 147.712L13.7463 139.079L9.59032 136.552L2.6756 145.185Z" fill="#FFB573"/>
<path d="M9.73299 148.985C9.67948 149.002 9.62002 149.008 9.56057 149.008C8.94817 148.996 8.25848 148.075 7.90175 147.528C7.87797 147.492 7.87797 147.439 7.90175 147.403C7.92553 147.367 7.9731 147.344 8.02066 147.355C8.21687 147.397 9.93514 147.754 10.1611 148.331C10.2086 148.455 10.1908 148.592 10.1076 148.711C9.99459 148.854 9.86974 148.943 9.73299 148.985ZM8.24659 147.635C8.74602 148.348 9.23356 148.77 9.56057 148.776C9.69731 148.776 9.81028 148.711 9.91136 148.574C9.96487 148.497 9.95297 148.449 9.94108 148.408C9.82217 148.105 8.93034 147.801 8.24659 147.635Z" fill="#407BFF"/>
<path d="M9.47733 147.498C8.96007 147.641 8.28822 147.665 7.96121 147.575C7.91959 147.564 7.88987 147.534 7.88392 147.498C7.87203 147.456 7.88392 147.421 7.91365 147.391C7.95527 147.349 8.89467 146.38 9.5903 146.41C9.78056 146.416 9.93514 146.493 10.0541 146.642C10.2384 146.868 10.173 147.052 10.1135 147.141C10.0065 147.296 9.76272 147.415 9.47733 147.498ZM8.22876 147.391C8.80548 147.456 9.73893 147.284 9.9173 147.011C9.94703 146.963 9.97081 146.898 9.87568 146.779C9.79839 146.684 9.70326 146.636 9.5784 146.63C9.16221 146.612 8.56172 147.088 8.22876 147.391Z" fill="#407BFF"/>
<path d="M8.08013 146.785L4.1382 142.991C3.99551 142.855 3.78741 142.837 3.63283 142.956L0.267628 145.554C-0.0831617 145.821 -0.0891065 146.386 0.249792 146.701C1.647 148.003 2.38425 148.562 4.12036 150.233C5.18462 151.262 6.64129 152.867 8.1158 154.288C9.55463 155.673 11.0291 154.365 10.5357 153.646C8.33579 150.423 8.66874 149.216 8.46659 147.564C8.43092 147.266 8.28822 146.987 8.08013 146.785Z" fill="#263238"/>
<path d="M40.2814 159.693C39.7522 159.693 39.1815 159.603 38.7772 159.52C38.7296 159.508 38.6939 159.473 38.688 159.425C38.682 159.377 38.7058 159.33 38.7474 159.306C38.9674 159.193 40.9116 158.212 41.4884 158.539C41.6013 158.604 41.6608 158.706 41.6727 158.842C41.6846 159.068 41.6132 159.253 41.4527 159.395C41.197 159.615 40.757 159.693 40.2814 159.693ZM39.1517 159.36C40.21 159.538 41.0008 159.49 41.2981 159.229C41.4051 159.134 41.4527 159.015 41.4408 158.86C41.4348 158.801 41.417 158.765 41.3694 158.741C41.0543 158.563 39.9544 158.979 39.1517 159.36Z" fill="#407BFF"/>
<path d="M38.795 159.52C38.7713 159.52 38.7475 159.514 38.7296 159.496C38.694 159.473 38.6821 159.431 38.6821 159.395C38.694 159.312 38.9139 157.35 39.9841 157.35C40.0139 157.35 40.0436 157.35 40.0793 157.356C40.3884 157.386 40.4776 157.546 40.5014 157.671C40.5906 158.212 39.4253 159.253 38.8426 159.514C38.8248 159.52 38.8129 159.52 38.795 159.52ZM39.9901 157.576C39.3004 157.576 39.0269 158.717 38.9377 159.205C39.5382 158.848 40.323 158.034 40.2755 157.707C40.2695 157.683 40.2576 157.6 40.0555 157.582C40.0377 157.576 40.0139 157.576 39.9901 157.576Z" fill="#407BFF"/>
<path d="M38.4978 158.854H33.1051C32.9089 158.854 32.7484 158.991 32.7127 159.181L31.9873 163.45C31.91 163.89 32.2846 164.312 32.7365 164.306C34.6153 164.277 35.525 164.164 37.8973 164.164C39.3539 164.164 42.3683 164.312 44.3839 164.312C46.3519 164.312 46.554 162.32 45.7217 162.142C41.9819 161.334 40.5312 160.216 39.2885 159.151C39.0685 158.955 38.7832 158.854 38.4978 158.854Z" fill="#263238"/>
<path opacity="0.2" d="M39.6214 148.521L38.8307 154.645L34.0861 153.848L34.8233 148.17L39.6214 148.521Z" fill="black"/>
<path opacity="0.2" d="M9.58432 136.552L13.7462 139.079L10.8805 142.652L6.63531 140.233L9.58432 136.552Z" fill="black"/>
<path d="M30.9825 50.5256C34.7402 51.031 42.7073 52.1012 50.4068 53.1357C57.9339 25.893 55.7162 25.1439 55.7162 25.1439C55.1217 24.7871 53.9623 24.4304 53.0704 24.1093C52.1548 23.7764 51.2273 23.4732 50.2938 23.1997C48.4269 22.6467 46.5243 22.2068 44.6039 21.8738C40.876 21.2317 37.0649 21.0176 33.2894 21.2376C32.5522 21.2792 31.7971 21.7014 31.3809 22.3197C31.3036 22.4386 31.2323 22.5635 31.1728 22.6943C30.9647 23.1462 30.8815 23.6515 30.9409 24.145C32.5997 38.4798 32.0706 43.1887 30.9825 50.5256Z" fill="#709CFF"/>
<path opacity="0.2" d="M52.2975 33.5034C51.7624 37.3086 52.7374 40.3884 53.3498 41.851C54.64 36.5356 55.3416 32.9088 55.6864 30.4355C54.206 30.3284 52.6661 30.8992 52.2975 33.5034Z" fill="black"/>
<path d="M55.5437 25.0666C58.8673 26.9751 61.1802 31.5057 61.8817 34.1455L54.7946 40.6381C54.7946 40.6381 51.1202 32.0943 51.4175 29.4366C51.7148 26.7492 54.2892 24.3472 55.5437 25.0666Z" fill="#A6C1FF"/>
<path d="M43.0164 6.39746C41.5241 10.9042 40.7987 12.7771 42.1067 15.9936C44.0807 20.8274 49.9252 21.85 52.7315 17.92C55.2584 14.3824 57.2739 7.61036 53.6768 4.00138C50.1392 0.439977 44.5088 1.8907 43.0164 6.39746Z" fill="#FFB573"/>
<path d="M50.4068 10.3929C50.0679 11.1896 50.0679 12.1766 50.2641 12.9792C50.5613 14.1802 51.4591 14.2694 52.0061 13.5024C52.4996 12.8127 52.9396 11.3561 52.3391 10.3572C51.7505 9.3643 50.7932 9.48321 50.4068 10.3929Z" fill="#FFB573"/>
<path d="M44.6336 0.784816C41.4289 -0.998859 35.6498 4.22136 34.1931 12.7414C33.1527 18.8416 46.1794 21.7906 54.4081 21.6954C53.8671 20.2566 50.4484 15.9282 52.6304 11.7663C54.2179 8.74001 56.0253 9.43564 56.1442 5.91586C56.2869 1.48045 50.4127 -1.49234 44.6336 0.784816Z" fill="#263238"/>
<path d="M51.9407 2.69929C55.6686 2.33661 59.4262 6.00504 56.6377 9.66158C56.6377 9.66158 54.6043 7.85412 51.7386 8.48435C50.0381 8.85298 51.9407 2.69929 51.9407 2.69929Z" fill="#263238"/>
<path d="M45.2816 52.446C45.2816 52.446 37.7367 84.3322 34.211 102.645C30.489 121.968 12.6463 142.1 12.6463 142.1L6.58777 138.722C6.58777 138.722 17.819 120.345 21.4577 102.306C28.854 65.6809 23.8478 58.3024 30.9825 50.5315L45.2816 52.446Z" fill="#263238"/>
<path d="M13.2468 142.664L5.6781 138.449L6.78398 136.213L15.2743 140.12L13.2468 142.664Z" fill="#616F87"/>
<path opacity="0.2" d="M41.2684 59.3726C35.4001 64.462 36.0363 82.5307 36.6487 90.6761C39.1101 79.1001 42.071 66.2041 43.8012 58.7424C43.1888 58.2846 42.3505 58.4392 41.2684 59.3726Z" fill="black"/>
<path d="M50.1214 53.1476C50.1214 53.1476 53.5163 90.9972 51.6613 105.433C49.7349 120.452 39.9366 153.123 39.9366 153.123L33.0159 152.231C33.0159 152.231 38.6345 119.851 39.6333 104.987C40.7214 88.7795 35.8876 51.2391 35.8876 51.2391L50.1214 53.1476Z" fill="#263238"/>
<path d="M41.4051 153.527L31.5474 152.255L31.696 149.341L42.3981 150.376L41.4051 153.527Z" fill="#616F87"/>
<path d="M30.8101 49.3543L29.7518 50.9656C29.6686 51.0904 29.8172 51.2509 30.0372 51.2807L50.4127 54.0156C50.5851 54.0394 50.7397 53.974 50.7635 53.867L51.1202 52.1666C51.144 52.0477 51.0013 51.9287 50.8111 51.899L31.1371 49.2592C31.0004 49.2354 30.8636 49.277 30.8101 49.3543Z" fill="#407BFF"/>
<path opacity="0.5" d="M30.8101 49.3543L29.7518 50.9656C29.6686 51.0904 29.8172 51.2509 30.0372 51.2807L50.4127 54.0156C50.5851 54.0394 50.7397 53.974 50.7635 53.867L51.1202 52.1666C51.144 52.0477 51.0013 51.9287 50.8111 51.899L31.1371 49.2592C31.0004 49.2354 30.8636 49.277 30.8101 49.3543Z" fill="black"/>
<path d="M33.224 51.8931L32.6948 51.8217C32.5878 51.8098 32.5164 51.7445 32.5283 51.6791L33.0159 49.4673C33.0278 49.4019 33.1288 49.3603 33.2299 49.3781L33.7591 49.4494C33.8661 49.4613 33.9374 49.5267 33.9255 49.5921L33.438 51.8039C33.4261 51.8634 33.325 51.905 33.224 51.8931Z" fill="#263238"/>
<path d="M46.5302 53.7124L46.0011 53.6411C45.8941 53.6292 45.8227 53.5638 45.8346 53.4984L46.3221 51.2866C46.334 51.2212 46.4351 51.1796 46.5362 51.1974L47.0653 51.2688C47.1724 51.2807 47.2437 51.3461 47.2318 51.4115L46.7443 53.6233C46.7324 53.6827 46.6373 53.7243 46.5302 53.7124Z" fill="#263238"/>
</svg>
