<svg width="156" height="44" viewBox="0 0 156 44" fill="none" xmlns="http://www.w3.org/2000/svg">
<g filter="url(#filter0_d)">
<path d="M134.195 6H21.8049C13.0761 6 6 13.0761 6 21.8049V22.2439C6 30.9727 13.0761 38.0488 21.8049 38.0488H134.195C142.924 38.0488 150 30.9727 150 22.2439V21.8049C150 13.0761 142.924 6 134.195 6Z" stroke="#FF0A6C"/>
<path d="M134.195 6H21.8049C13.0761 6 6 13.0761 6 21.8049V22.2439C6 30.9727 13.0761 38.0488 21.8049 38.0488H134.195C142.924 38.0488 150 30.9727 150 22.2439V21.8049C150 13.0761 142.924 6 134.195 6Z" stroke="url(#paint0_linear)"/>
</g>
<g filter="url(#filter1_d)">
<path d="M28.0847 22.7995H21.9315V27.4093H29.1239V29.4878H19.3282V14.5061H29.0519V16.6052H21.9315V20.7416H28.0847V22.7995ZM39.5778 26.226L43.385 14.5061H46.2455L40.8538 29.4878H38.3328L32.9616 14.5061H35.8118L39.5778 26.226ZM59.7555 22.7995H53.6021V27.4093H60.7946V29.4878H50.9987V14.5061H60.7226V16.6052H53.6021V20.7416H59.7555V22.7995ZM77.8542 29.4878H75.2513L68.5733 18.8586V29.4878H65.9699V14.5061H68.5733L75.2719 25.1764V14.5061H77.8542V29.4878ZM94.5025 16.6052H89.8313V29.4878H87.2485V16.6052H82.6181V14.5061H94.5025V16.6052ZM102.137 23.9211V29.4878H99.5337V14.5061H105.265C106.939 14.5061 108.266 14.9417 109.247 15.8129C110.235 16.684 110.729 17.8365 110.729 19.2702C110.729 20.7382 110.245 21.8803 109.278 22.6966C108.318 23.5129 106.97 23.9211 105.234 23.9211H102.137ZM102.137 21.8323H105.265C106.191 21.8323 106.898 21.6162 107.385 21.184C107.872 20.745 108.115 20.1139 108.115 19.2908C108.115 18.4813 107.869 17.8365 107.375 17.3563C106.881 16.8693 106.202 16.6189 105.337 16.6052H102.137V21.8323ZM118.816 29.4878H116.223V14.5061H118.816V29.4878ZM136.504 24.6105C136.353 26.2088 135.763 27.4573 134.734 28.356C133.705 29.2477 132.336 29.6936 130.628 29.6936C129.435 29.6936 128.382 29.4123 127.469 28.8499C126.564 28.2805 125.864 27.4745 125.37 26.4318C124.876 25.3891 124.619 24.1783 124.598 22.7995V21.4001C124.598 19.987 124.849 18.742 125.35 17.665C125.851 16.588 126.568 15.758 127.5 15.1749C128.44 14.5918 129.524 14.3003 130.752 14.3003C132.405 14.3003 133.736 14.7496 134.744 15.6483C135.753 16.5469 136.339 17.8159 136.504 19.4554H133.911C133.787 18.3784 133.472 17.6033 132.964 17.13C132.463 16.6498 131.726 16.4097 130.752 16.4097C129.62 16.4097 128.749 16.8247 128.138 17.6547C127.535 18.4779 127.226 19.6886 127.212 21.287V22.6143C127.212 24.2332 127.5 25.468 128.076 26.3186C128.659 27.1692 129.51 27.5945 130.628 27.5945C131.651 27.5945 132.419 27.3647 132.933 26.9051C133.448 26.4455 133.774 25.6806 133.911 24.6105H136.504Z" fill="#FF0A6C"/>
<path d="M28.0847 22.7995H21.9315V27.4093H29.1239V29.4878H19.3282V14.5061H29.0519V16.6052H21.9315V20.7416H28.0847V22.7995ZM39.5778 26.226L43.385 14.5061H46.2455L40.8538 29.4878H38.3328L32.9616 14.5061H35.8118L39.5778 26.226ZM59.7555 22.7995H53.6021V27.4093H60.7946V29.4878H50.9987V14.5061H60.7226V16.6052H53.6021V20.7416H59.7555V22.7995ZM77.8542 29.4878H75.2513L68.5733 18.8586V29.4878H65.9699V14.5061H68.5733L75.2719 25.1764V14.5061H77.8542V29.4878ZM94.5025 16.6052H89.8313V29.4878H87.2485V16.6052H82.6181V14.5061H94.5025V16.6052ZM102.137 23.9211V29.4878H99.5337V14.5061H105.265C106.939 14.5061 108.266 14.9417 109.247 15.8129C110.235 16.684 110.729 17.8365 110.729 19.2702C110.729 20.7382 110.245 21.8803 109.278 22.6966C108.318 23.5129 106.97 23.9211 105.234 23.9211H102.137ZM102.137 21.8323H105.265C106.191 21.8323 106.898 21.6162 107.385 21.184C107.872 20.745 108.115 20.1139 108.115 19.2908C108.115 18.4813 107.869 17.8365 107.375 17.3563C106.881 16.8693 106.202 16.6189 105.337 16.6052H102.137V21.8323ZM118.816 29.4878H116.223V14.5061H118.816V29.4878ZM136.504 24.6105C136.353 26.2088 135.763 27.4573 134.734 28.356C133.705 29.2477 132.336 29.6936 130.628 29.6936C129.435 29.6936 128.382 29.4123 127.469 28.8499C126.564 28.2805 125.864 27.4745 125.37 26.4318C124.876 25.3891 124.619 24.1783 124.598 22.7995V21.4001C124.598 19.987 124.849 18.742 125.35 17.665C125.851 16.588 126.568 15.758 127.5 15.1749C128.44 14.5918 129.524 14.3003 130.752 14.3003C132.405 14.3003 133.736 14.7496 134.744 15.6483C135.753 16.5469 136.339 17.8159 136.504 19.4554H133.911C133.787 18.3784 133.472 17.6033 132.964 17.13C132.463 16.6498 131.726 16.4097 130.752 16.4097C129.62 16.4097 128.749 16.8247 128.138 17.6547C127.535 18.4779 127.226 19.6886 127.212 21.287V22.6143C127.212 24.2332 127.5 25.468 128.076 26.3186C128.659 27.1692 129.51 27.5945 130.628 27.5945C131.651 27.5945 132.419 27.3647 132.933 26.9051C133.448 26.4455 133.774 25.6806 133.911 24.6105H136.504Z" fill="url(#paint1_linear)"/>
</g>
<defs>
<filter id="filter0_d" x="0.5" y="0.5" width="155" height="43.0488" filterUnits="userSpaceOnUse" color-interpolation-filters="sRGB">
<feFlood flood-opacity="0" result="BackgroundImageFix"/>
<feColorMatrix in="SourceAlpha" type="matrix" values="0 0 0 0 0 0 0 0 0 0 0 0 0 0 0 0 0 0 127 0"/>
<feOffset/>
<feGaussianBlur stdDeviation="2.5"/>
<feColorMatrix type="matrix" values="0 0 0 0 0 0 0 0 0 0 0 0 0 0 0 0 0 0 0.25 0"/>
<feBlend mode="normal" in2="BackgroundImageFix" result="effect1_dropShadow"/>
<feBlend mode="normal" in="SourceGraphic" in2="effect1_dropShadow" result="shape"/>
</filter>
<filter id="filter1_d" x="15.3282" y="10.3003" width="125.175" height="23.3933" filterUnits="userSpaceOnUse" color-interpolation-filters="sRGB">
<feFlood flood-opacity="0" result="BackgroundImageFix"/>
<feColorMatrix in="SourceAlpha" type="matrix" values="0 0 0 0 0 0 0 0 0 0 0 0 0 0 0 0 0 0 127 0"/>
<feOffset/>
<feGaussianBlur stdDeviation="2"/>
<feColorMatrix type="matrix" values="0 0 0 0 0 0 0 0 0 0 0 0 0 0 0 0 0 0 0.25 0"/>
<feBlend mode="normal" in2="BackgroundImageFix" result="effect1_dropShadow"/>
<feBlend mode="normal" in="SourceGraphic" in2="effect1_dropShadow" result="shape"/>
</filter>
<linearGradient id="paint0_linear" x1="119.927" y1="5.7805" x2="16.5299" y2="36.1634" gradientUnits="userSpaceOnUse">
<stop stop-color="#4A3CDB"/>
<stop offset="1" stop-color="white" stop-opacity="0"/>
</linearGradient>
<linearGradient id="paint1_linear" x1="112.255" y1="10.1707" x2="25.1837" y2="47.4252" gradientUnits="userSpaceOnUse">
<stop stop-color="#4A3CDB"/>
<stop offset="1" stop-color="white" stop-opacity="0"/>
</linearGradient>
</defs>
</svg>
